<?xml version="1.0" standalone="no"?>
<!DOCTYPE svg PUBLIC "-//W3C//DTD SVG 20010904//EN"
 "http://www.w3.org/TR/2001/REC-SVG-20010904/DTD/svg10.dtd">
<svg version="1.0" xmlns="http://www.w3.org/2000/svg"
 width="596.000000pt" height="525.000000pt" viewBox="0 0 596.000000 525.000000"
 preserveAspectRatio="xMidYMid meet">

<g transform="translate(0.000000,525.000000) scale(0.100000,-0.100000)"
fill="#000000" stroke="none">
<path d="M3252 5190 c-27 -87 -69 -130 -247 -253 -298 -204 -385 -349 -372
-617 4 -63 12 -137 19 -165 l13 -50 45 1 c25 0 71 4 102 8 70 9 78 26 54 109
-22 75 -20 79 13 28 l29 -44 22 52 c13 28 26 51 30 51 4 0 26 -43 50 -95 31
-68 48 -95 61 -95 9 0 25 -3 34 -6 23 -9 15 18 -66 222 -101 257 -108 322 -48
443 23 46 56 84 139 162 123 114 143 149 138 239 l-3 55 -13 -45z"/>
<path d="M3215 4929 c-54 -29 -121 -95 -145 -144 -46 -95 -31 -233 42 -405 22
-52 54 -137 72 -187 29 -87 33 -93 59 -93 34 0 34 -7 2 -32 -20 -15 -25 -28
-25 -61 1 -40 1 -41 16 -22 9 11 34 56 55 99 36 75 39 86 39 168 0 120 -22
219 -77 346 -63 144 -68 212 -24 295 16 31 29 57 28 57 -1 0 -20 -9 -42 -21z"/>
<path d="M2532 4368 c-65 -131 -85 -203 -85 -300 0 -64 5 -87 32 -143 42 -90
180 -228 274 -275 l65 -32 194 4 c188 3 196 4 231 28 20 14 37 32 37 42 0 9
29 39 65 67 119 94 145 166 126 352 -6 59 -19 131 -28 160 l-17 54 -9 -94 c-5
-52 -17 -117 -28 -145 -26 -71 -96 -148 -159 -175 -29 -12 -53 -21 -55 -19 -2
2 -7 23 -12 47 l-8 43 -23 -18 -23 -19 22 -103 c11 -57 19 -106 16 -108 -3 -3
-20 4 -38 15 -32 20 -33 20 -57 0 -34 -26 -78 -24 -107 6 -14 13 -25 29 -25
35 0 17 -19 11 -82 -25 -33 -20 -63 -34 -65 -31 -3 2 5 51 16 107 12 57 18
106 14 109 -5 4 -32 29 -62 56 l-54 49 18 -35 c10 -19 33 -57 52 -84 34 -49
40 -66 24 -66 -15 0 -119 117 -147 167 -58 98 -83 243 -60 353 9 41 14 75 12
77 -1 2 -26 -43 -54 -99z"/>
<path d="M2919 4171 l-36 -78 -88 -8 -87 -7 64 -67 65 -66 -17 -82 c-9 -46
-15 -83 -12 -83 3 0 36 18 74 40 39 22 73 40 78 40 5 0 39 -18 78 -40 38 -22
71 -40 74 -40 3 0 -2 38 -12 85 l-17 84 63 62 c35 33 64 62 64 64 0 2 -39 6
-86 10 l-87 8 -36 78 c-19 44 -38 79 -41 79 -3 0 -22 -35 -41 -79z"/>
</g>
</svg>
